<?xml version="1.0" encoding="UTF-8" standalone="no"?>

<svg
   xmlns="http://www.w3.org/2000/svg"
   viewBox="0 0 12.166928 12.748862">
    <path d="m 0.41382,12.28423 c -0.22868,-0.22868 -0.41489,-0.61563 -0.41382,-0.8599 0.001,-0.24426 0.89405,-2.28571 1.98438,-4.53655 1.8647,-3.84943 2.33493,-5.30028 1.71783,-5.30028 -0.14552,0 -0.26458,-0.35718 -0.26458,-0.79375 v -0.79375 h 2.64583 2.64584 v 0.79375 c 0,0.43657 -0.11907,0.79375 -0.26459,0.79375 -0.61709,0 -0.14687,1.45085 1.71784,5.30028 1.09033,2.25084 1.9833,4.29229 1.98437,4.53655 0.001,0.24427 -0.18514,0.63122 -0.41381,0.8599 -0.61951,0.61951 -10.71978,0.61951 -11.33929,0 z m 11.04302,-0.97895 c -0.0278,-0.40329 -0.89103,-2.47331 -1.91823,-4.60004 -1.02721,-2.12673 -1.86765,-4.14825 -1.86765,-4.49226 0,-0.58808 -0.0949,-0.62548 -1.5875,-0.62548 -1.51974,0 -1.5875,0.0284 -1.5875,0.66587 0,0.36622 -0.63979,1.9438 -1.42175,3.50573 -2.00067,3.9962 -2.63172,5.54474 -2.45122,6.01511 0.13504,0.3519 0.8897,0.39783 5.52043,0.33598 l 5.364,-0.0716 z m -7.45029,-0.86139 c -0.87595,-0.73706 -1.22112,-1.79179 -0.9456,-2.88951 0.14679,-0.58488 0.29039,-0.68783 0.78593,-0.56345 0.48426,0.12154 0.71824,-0.0289 1.16223,-0.74729 0.89475,-1.44774 1.5035,-1.37794 2.3539,0.2699 0.21172,0.41025 0.4657,0.52668 0.94785,0.43451 0.53766,-0.10278 0.69043,8.2e-4 0.8318,0.56407 0.25122,1.00095 -0.0694,1.97419 -0.93573,2.84054 -1.04339,1.04339 -3.01784,1.08628 -4.20038,0.0912 z m 1.64735,-1.24154 c 0.13495,-0.5678 0.0448,-0.80052 -0.42732,-1.10358 -0.93119,-0.5977 -1.62331,-0.62727 -1.73664,-0.0742 -0.1493,0.72856 0.44003,1.9317 1.091,2.22734 0.63766,0.2896 0.79012,0.14046 1.07296,-1.04957 z m 1.87292,1.21663 c 0.86097,-0.33038 1.68425,-3.01064 0.92475,-3.01064 -1.02932,0 -2.63269,1.75658 -2.63269,2.88425 0,0.31555 1.01858,0.39092 1.70794,0.12639 z m -0.79851,-3.83652 c -0.48672,-0.9412 -0.76967,-0.95631 -1.34908,-0.072 -0.43812,0.66866 -0.43235,0.70431 0.19009,1.17381 0.58296,0.43973 0.68376,0.44635 1.09738,0.072 0.41238,-0.37319 0.41821,-0.48423 0.0616,-1.17381 z M 203.2,251.37828 c 0,-0.15434 -0.88194,-0.26458 -2.11667,-0.26458 -1.23472,0 -2.11666,0.11024 -2.11666,0.26458 0,0.15434 0.88194,0.26459 2.11666,0.26459 1.23473,0 2.11667,-0.11025 2.11667,-0.26459 z"/>
</svg>
