<?xml version="1.0" encoding="UTF-8" standalone="no"?>

<svg
   xmlns="http://www.w3.org/2000/svg"
   viewBox="0 0 16.404169 13.495495">
    <path d="m 0,13.23092 c 0,-0.14553 0.11907,-0.26459 0.26459,-0.26459 0.14552,0 0.26458,0.11906 0.26458,0.26459 0,0.14552 -0.11906,0.26458 -0.26458,0.26458 -0.14552,0 -0.26459,-0.11906 -0.26459,-0.26458 z m 1.85209,0 c 0,-0.14553 0.41672,-0.26459 0.92604,-0.26459 1.14288,0 1.25876,-0.67361 0.26458,-1.53803 -0.6467,-0.5623 -0.66146,-0.65783 -0.66146,-4.28105 0,-3.21953 0.0555,-3.70592 0.42302,-3.70592 0.23265,0 0.75667,-0.35718 1.16448,-0.79375 0.40781,-0.43656 0.99136,-0.79375 1.29678,-0.79375 0.30542,0 0.55531,-0.16995 0.55531,-0.37767 0,-0.20772 0.31371,-0.62444 0.69714,-0.92604 0.98489,-0.77472 2.49087,-0.72589 3.48794,0.11309 0.43235,0.3638 1.02829,0.66146 1.32432,0.66146 0.66344,0 1.31725,0.62469 1.52654,1.45856 0.0944,0.37623 0.38617,0.6604 0.728,0.70911 0.55281,0.0788 0.57043,0.19447 0.57043,3.74476 v 3.66348 l -0.7276,0.57979 c -0.40019,0.31889 -0.72761,0.78369 -0.72761,1.03288 0,0.38457 0.28006,0.45308 1.85209,0.45308 1.05833,0 1.85208,0.11339 1.85208,0.26459 0,0.16997 -2.60174,0.26458 -7.27604,0.26458 -4.67431,0 -7.27604,-0.0946 -7.27604,-0.26458 z m 7.67291,-0.79375 c 0,-0.45862 -0.17639,-0.52917 -1.32291,-0.52917 -1.14653,0 -1.32292,0.0705 -1.32292,0.52917 0,0.45861 0.17639,0.52916 1.32292,0.52916 1.14652,0 1.32291,-0.0705 1.32291,-0.52916 z m -3.57187,-0.52917 c 0,-0.48491 -0.15921,-0.68407 -0.5965,-0.74616 -0.35779,-0.0508 -0.66029,0.0815 -0.75591,0.33073 -0.26344,0.6865 0.1058,1.25391 0.75591,1.16159 0.43729,-0.0621 0.5965,-0.26125 0.5965,-0.74616 z m 5.82083,0 c 0,-0.48491 -0.15921,-0.68407 -0.59649,-0.74616 -0.3578,-0.0508 -0.6603,0.0815 -0.75592,0.33073 -0.26343,0.6865 0.10581,1.25391 0.75592,1.16159 0.43728,-0.0621 0.59649,-0.26125 0.59649,-0.74616 z m -5.6671,-1.25677 c 0.46627,0.26483 1.36308,0.46302 2.09523,0.46302 0.73214,0 1.62896,-0.19819 2.09522,-0.46302 0.76839,-0.43644 0.86053,-0.43728 1.60475,-0.0147 0.71243,0.40451 0.82954,0.40833 1.19879,0.0391 0.33181,-0.33181 0.39517,-0.99223 0.33492,-3.49102 l -0.0743,-3.08179 h -5.15937 -5.15938 v 3.25126 c 0,3.64021 0.1702,4.01401 1.48728,3.26647 0.70925,-0.40256 0.81779,-0.40044 1.57687,0.0307 z m -6.10686,0.76 c 0,-0.1277 0.1786,-0.38041 0.39688,-0.56156 0.31366,-0.26032 0.39687,-1.01604 0.39687,-3.60428 0,-2.73462 -0.0655,-3.27489 -0.39687,-3.27489 -0.21828,0 -0.39688,-0.11906 -0.39688,-0.26458 0,-0.14552 0.35719,-0.26459 0.79375,-0.26459 h 0.79375 v 3.66316 c 0,3.21279 -0.0595,3.717 -0.48385,4.10104 -0.52221,0.4726 -1.10365,0.58096 -1.10365,0.2057 z m 15.22855,-0.35585 c -0.32258,-0.46054 -0.41188,-1.34972 -0.41188,-4.10104 v -3.51301 h 0.79375 c 0.43656,0 0.79375,0.11907 0.79375,0.26459 0,0.14552 -0.1786,0.26458 -0.39688,0.26458 -0.3314,0 -0.39687,0.54027 -0.39687,3.27489 0,2.58824 0.0832,3.34396 0.39687,3.60428 0.21828,0.18115 0.39688,0.43386 0.39688,0.56156 0,0.4554 -0.77082,0.22208 -1.17562,-0.35585 z" />
</svg>
