<?xml version="1.0" encoding="UTF-8" standalone="no"?>

<svg
   xmlns="http://www.w3.org/2000/svg"
   viewBox="0 0 13.229167 13.049289">
    <path
       d="m 0,9.34503v -3.70417 h 1.570736 1.5707369 l 0.082909,-0.85989 0.082909,-0.8599 2.1828126,-0.0768 2.1828126,-0.0768 v -0.76583 c 0,-0.4212 0.1152903,-1.06906 0.256201,-1.43968 0.2089198,-0.5495 0.1650762,-0.72263 -0.2375744,-0.93812 -0.7506248,-0.40172 -3.1314039,-0.1483 -3.7345351,0.39753 -0.6968143,0.63061 -1.0275054,0.24957 -0.3614523,-0.41648 0.4104227,-0.41042 0.9404318,-0.53738 2.4545717,-0.58796 1.6719965,-0.0559 1.9903168,0.008 2.3722679,0.47751 0.2426304,0.29812 0.6411701,0.61861 0.8856441,0.7122 0.2939248,0.11252 0.4995286,0.60111 0.6069507,1.44234 0.4150276,3.25012 0.2536018,2.99197 1.87095719,2.99197 H 0.566964 v 3.70417 3.70417 h -1.3229167 c -1.1139715,0 -1.3229167,-0.0778 -1.3229167,-0.49279 0,-0.27103 -0.3571875,-0.94225 -0.79375,-1.49159 -0.8545431,-1.0753 -1.0222977,-1.89377 -0.4162992,-2.03112 0.3024971,-0.0686 0.2762269,-0.20958 -0.1322916,-0.71017 l -0.5097426,-0.62462 -0.5097425,0.62462 c -0.4085186,0.50059 -0.4347888,0.64161 -0.1322917,0.71017 0.2075979,0.0471 0.3774509,0.29857 0.3774509,0.55893 0,0.26036 0.3571875,0.92285 0.79375,1.47219 0.4365625,0.54934 0.79375,1.22056 0.79375,1.49159 0,0.44201 -0.2317342,0.49279 -2.2489584,0.49279 -2.0172241,0 -2.2489584,-0.0508 -2.2489584,-0.49279 0,-0.27103 -0.3571875,-0.94225 -0.79375,-1.49159 -0.854543,-1.0753 -1.0222976,-1.89377 -0.4162991,-2.03112 0.3024971,-0.0686 0.2762268,-0.20958 -0.1322917,-0.71017 l -0.5097425,-0.62462 -0.5097426,0.62462 c -0.4085185,0.50059 -0.4347887,0.64161 -0.1322917,0.71017 0.2075979,0.0471 0.3774509,0.29857 0.3774509,0.55893 0,0.26036 0.3571875,0.92285 0.79375,1.47219 0.4365626,0.54934 0.7937501,1.22056 0.7937501,1.49159 0,0.44608 -0.2382457,0.49279 -2.5135415,0.49279 h -2.513542 z m 4.4979168,2.9468 c 0,-0.12551 -0.3571875,-0.67767 -0.79375,-1.22701 -0.4365626,-0.54934 -0.7937501,-1.10149 -0.7937501,-1.227 0,-0.12552 -0.2999647,-0.22821 -0.6665887,-0.22821 h -0.666589 l 0.987649,-1.32291 c 0.5432066,-0.72761 1.0558821,-1.32292 1.1392788,-1.32292 0.083397,0 0.5960721,0.59531 1.1392792,1.32292 l 0.9876488,1.32291 h -0.6886377 c -0.7859416,0 -0.7860368,-5.6e-4 0.2815014,1.65795 l 0.79375,1.23315 1.6536459,0.01 c 0.9095052,0.005 1.6536458,-0.093 1.6536458,-0.21854 0,-0.12551 -0.3571875,-0.67767 -0.79375,-1.22701 -0.4365625,-0.54934 -0.79375,-1.10149 -0.79375,-1.227 0,-0.12552 -0.299965,-0.22821 -0.6665892,-0.22821 h -0.6665888 l 0.9876488,-1.32291 c 0.5432071,-0.72761 1.0558826,-1.32292 1.1392792,-1.32292 0.083397,0 0.5960722,0.59531 1.1392792,1.32292 l 0.9876489,1.32291 h -0.6886377 c -0.7859416,0 -0.7860369,-5.5e-4 0.2815013,1.65795 0.6232877,0.96832 0.9500071,1.23522 1.52135424,1.24281 l 0.72760418,0.01 v -3.175 -3.175 H -1.386925 -2.811647 l -0.1734492,-1.52135 c -0.2975372,-2.60976 -0.4166888,-2.97657 -0.966879,-2.97657 -0.4209712,0 -0.5086438,0.19291 -0.5110563,1.12448 -0.00402,1.55284 -0.284744,3.10886 -0.5608733,3.10886 -0.1264806,0 -0.2299647,-0.35719 -0.2299647,-0.79375 v -0.79375 h -1.8520834 -1.8520833 v 0.92604 0.92604 h -1.5874998 -1.5875 v 3.175 3.175 h 1.984375 c 1.091406,0 1.9843748,-0.10269 1.9843748,-0.2282 z m -0.2645834,-7.18013 c 0,-0.14552 0.238125,-0.26459 0.5291667,-0.26459 0.2910417,0 0.5291667,0.11907 0.5291667,0.26459 0,0.14552 -0.238125,0.26458 -0.5291667,0.26458 -0.2910417,0 -0.5291667,-0.11906 -0.5291667,-0.26458 z m 1.5875001,0 c 0,-0.14552 0.238125,-0.26459 0.5291667,-0.26459 0.2910416,0 0.5291666,0.11907 0.5291666,0.26459 0,0.14552 -0.238125,0.26458 -0.5291666,0.26458 -0.2910417,0 -0.5291667,-0.11906 -0.5291667,-0.26458 z m -4.1130685,-3.03069 c -0.609284,-0.60928 -0.850584,-1.20265 -0.489073,-1.20265 0.0882,0 0.394495,0.29766 0.680662,0.66146 0.591409,0.75186 1.5715873,0.85166 2.5985628,0.26459 0.8502441,-0.48605 1.6189545,-0.49339 2.2641185,-0.0216 0.6579714,0.48112 0.3402176,0.8269 -0.3587481,0.39039 -0.4311134,-0.26924 -0.739359,-0.24843 -1.6882562,0.11396 -1.5802942,0.60352 -2.243068,0.55809 -3.007266,-0.20611 z"/>
</svg>
