<?xml version="1.0" encoding="UTF-8" standalone="no"?>

<svg
   xmlns="http://www.w3.org/2000/svg"
   viewBox="0 0 13.093192 13.218554">
    <path
       d="m 0,12.99346 c 0,-0.21895 1.5648,-0.58239 2.3151,-0.53772 0.18191,0.0108 0.80698,0.0197 1.38907,0.0197 0.58208,0 1.23692,0 1.45521,0 0.21828,0 0.87312,0 1.4552,0 0.58209,0 1.23693,0 1.45521,0 0.21828,0 0.87313,0 1.45521,0 0.58208,0 1.20716,-0.0122 1.38906,-0.0271 0.1819,-0.0149 0.80698,0.0768 1.38907,0.20394 0.86777,0.18945 0.96793,0.26998 0.55629,0.44724 -0.27612,0.1189 -0.8119,0.1019 -1.19062,-0.0378 -0.44428,-0.16385 -0.94674,-0.16108 -1.4162,0.008 -0.47981,0.17261 -0.97539,0.17261 -1.4552,0 -0.48392,-0.17408 -0.9713,-0.17176 -1.45521,0.007 -0.49247,0.18185 -0.96275,0.18185 -1.45521,0 -0.4881,-0.18023 -0.97024,-0.18142 -1.46471,-0.004 -0.50389,0.18122 -0.9765,0.17474 -1.49369,-0.0205 -0.43759,-0.16517 -0.90767,-0.18982 -1.11497,-0.0585 -0.47345,0.30001 -1.81361,0.29969 -1.81361,-4.3e-4 z m 0,-1.05833 c 0,-0.21895 1.5648,-0.5824 2.3151,-0.53772 0.18191,0.0108 0.80698,0.0197 1.38907,0.0197 0.58208,0 1.23692,0 1.45521,0 0.21828,0 0.87312,0 1.4552,0 0.58209,0 1.23693,0 1.45521,0 0.21828,0 0.87313,0 1.45521,0 0.58208,0 1.20716,-0.0122 1.38906,-0.0271 0.1819,-0.0149 0.80698,0.0769 1.38907,0.20393 0.86777,0.18946 0.96793,0.26999 0.55629,0.44724 -0.27612,0.1189 -0.8119,0.1019 -1.19062,-0.0378 -0.44428,-0.16385 -0.94674,-0.16108 -1.4162,0.008 -0.47981,0.17261 -0.97539,0.17261 -1.4552,0 -0.48392,-0.17409 -0.9713,-0.17176 -1.45521,0.007 -0.49247,0.18185 -0.96275,0.18185 -1.45521,0 -0.4881,-0.18024 -0.97024,-0.18142 -1.46471,-0.004 -0.50389,0.18121 -0.9765,0.17473 -1.49369,-0.0205 -0.43759,-0.16518 -0.90767,-0.18983 -1.11497,-0.0585 -0.47345,0.3 -1.81361,0.29968 -1.81361,-4.3e-4 z m 6.35,-1.64729 c 0,-0.76661 -0.0512,-0.812 -0.7276,-0.64543 -1.69777,0.41807 -2.07612,0.42621 -2.57618,0.0555 -0.51455,-0.38149 -0.51517,-0.40131 -0.0296,-0.93783 0.40664,-0.44933 0.43593,-0.62051 0.16253,-0.94994 -0.18342,-0.22101 -0.48887,-0.40184 -0.67877,-0.40184 -0.41607,0 -1.44202,-1.24896 -1.44202,-1.75547 0,-0.22794 0.30422,-0.36119 0.8246,-0.36119 0.7666,0 0.81199,-0.0512 0.64542,-0.72761 -0.41806,-1.69776 -0.42621,-2.07612 -0.0555,-2.57617 0.3815,-0.51455 0.40132,-0.51517 0.93783,-0.0296 0.44934,0.40664 0.62052,0.43593 0.94994,0.16253 0.22101,-0.18343 0.40184,-0.48887 0.40184,-0.67877 0,-0.41607 1.24896,-1.44202 1.75547,-1.44202 0.22794,0 0.3612,0.30421 0.3612,0.82459 0,0.76661 0.0512,0.812 0.7276,0.64543 1.69776,-0.41807 2.07612,-0.42621 2.57618,-0.0555 0.51454,0.38149 0.51517,0.40131 0.0296,0.93783 -0.40664,0.44933 -0.43593,0.62051 -0.16253,0.94994 0.18342,0.22101 0.48887,0.40184 0.67877,0.40184 0.41607,0 1.44201,1.24896 1.44201,1.75547 0,0.22794 -0.30421,0.36119 -0.82459,0.36119 -0.7666,0 -0.81199,0.0512 -0.64543,0.72761 0.41807,1.69776 0.42622,2.07612 0.0555,2.57617 -0.38149,0.51455 -0.40131,0.51517 -0.93783,0.0296 -0.44933,-0.40664 -0.62051,-0.43592 -0.94994,-0.16253 -0.22101,0.18343 -0.40183,0.48887 -0.40183,0.67878 0,0.41606 -1.24896,1.44201 -1.75548,1.44201 -0.22794,0 -0.36119,-0.30421 -0.36119,-0.82459 z m 1.5875,-0.7542 c 0,-0.27601 0.3438,-0.74665 0.76399,-1.04585 0.66916,-0.47649 0.80454,-0.49514 1.09073,-0.15031 0.17971,0.21654 0.43122,0.3937 0.55893,0.3937 0.33173,0 0.28691,-0.97789 -0.0711,-1.55116 -0.49118,-0.78651 -0.0743,-1.88842 0.71452,-1.88842 0.58374,0 0.63085,-0.0652 0.38252,-0.52917 -0.15576,-0.29104 -0.50903,-0.52917 -0.78504,-0.52917 -0.27601,0 -0.74664,-0.34379 -1.04585,-0.76399 -0.47648,-0.66916 -0.49514,-0.80454 -0.15031,-1.09073 0.21654,-0.1797 0.3937,-0.43122 0.3937,-0.55892 0,-0.33174 -0.97789,-0.28691 -1.55115,0.0711 -0.78652,0.49119 -1.88843,0.0743 -1.88843,-0.71451 0,-0.58374 -0.0652,-0.63085 -0.52917,-0.38253 -0.29104,0.15576 -0.52916,0.50903 -0.52916,0.78504 0,0.27602 -0.3438,0.74665 -0.76399,1.04585 -0.66917,0.47649 -0.80454,0.49514 -1.09073,0.15031 -0.17971,-0.21654 -0.43123,-0.3937 -0.55893,-0.3937 -0.33173,0 -0.28691,0.97789 0.0711,1.55116 0.49119,0.78651 0.0743,1.88842 -0.71451,1.88842 -0.58374,0 -0.63085,0.0652 -0.38253,0.52917 0.15576,0.29104 0.50903,0.52917 0.78505,0.52917 0.27601,0 0.74664,0.34379 1.04584,0.76399 0.47649,0.66916 0.49515,0.80454 0.15031,1.09073 -0.21653,0.1797 -0.3937,0.43122 -0.3937,0.55892 0,0.33174 0.97789,0.28691 1.55116,-0.0711 0.78652,-0.49119 1.88843,-0.0743 1.88843,0.71452 0,0.58373 0.0652,0.63084 0.52916,0.38252 0.29105,-0.15576 0.52917,-0.50903 0.52917,-0.78504 z m -2.11667,-1.97501 c 0,-0.0972 0.18165,-0.52792 0.40367,-0.95726 0.3959,-0.76558 0.39073,-0.78061 -0.26904,-0.78061 h -0.67271 l 0.67038,-1.32291 c 0.4783,-0.9439 0.82688,-1.32292 1.21666,-1.32292 h 0.54629 l -0.56087,0.90749 -0.56086,0.90749 0.65007,0.0847 c 0.64867,0.0845 0.64784,0.0875 -0.38676,1.37268 -0.57026,0.7084 -1.03683,1.2085 -1.03683,1.11134 z" />
</svg>
