<?xml version="1.0" encoding="UTF-8" standalone="no"?>

<svg
   xmlns="http://www.w3.org/2000/svg"
   viewBox="0 0 9.05972 13.19449">
    <path
       d="m 0.08213,12.20234 c 0.0706,-0.85293 0.1811,-1.00364 0.78735,-1.07375 0.50144,-0.058 0.74106,0.0567 0.82921,0.39688 0.1137,0.4388 0.12651,0.44008 0.15466,0.0154 0.0428,-0.64593 1.53159,-0.64593 1.70039,0 0.11524,0.44097 0.12246,0.44097 0.15169,0 0.0218,-0.32851 0.25565,-0.46302 0.80504,-0.46302 0.51499,0 0.81488,0.15508 0.89535,0.46302 0.11524,0.44097 0.12246,0.44097 0.15169,0 0.0428,-0.64593 1.5316,-0.64593 1.7004,0 0.11141,0.42632 0.12343,0.42493 0.15169,-0.0176 0.0232,-0.3628 0.20904,-0.46008 0.75829,-0.39688 0.6317,0.0727 0.73843,0.21451 0.80973,1.07591 l 0.0821,0.99219 h -4.52986 -4.52986 z m 8.41649,-0.0661 c 0,-0.29104 -0.11906,-0.52916 -0.26458,-0.52916 -0.14552,0 -0.26458,0.17859 -0.26458,0.39687 0,0.24695 -0.24989,0.39688 -0.66146,0.39688 -0.41158,0 -0.66146,-0.14993 -0.66146,-0.39688 0,-0.21828 -0.11906,-0.39687 -0.26458,-0.39687 -0.14552,0 -0.26459,0.17859 -0.26459,0.39687 0,0.24695 -0.24988,0.39688 -0.66145,0.39688 -0.41158,0 -0.66146,-0.14993 -0.66146,-0.39688 0,-0.21828 -0.11907,-0.39687 -0.26459,-0.39687 -0.14552,0 -0.26458,0.17859 -0.26458,0.39687 0,0.24695 -0.24988,0.39688 -0.66146,0.39688 -0.41157,0 -0.66146,-0.14993 -0.66146,-0.39688 0,-0.21828 -0.11906,-0.39687 -0.26458,-0.39687 -0.14552,0 -0.26458,0.17859 -0.26458,0.39687 0,0.24695 -0.24989,0.39688 -0.66146,0.39688 -0.41158,0 -0.66146,-0.14993 -0.66146,-0.39688 0,-0.21828 -0.11906,-0.39687 -0.26458,-0.39687 -0.14552,0 -0.26459,0.23812 -0.26459,0.52916 0,0.50565 0.17639,0.52917 3.96875,0.52917 3.79236,0 3.96875,-0.0235 3.96875,-0.52917 z m -6.08103,-2.07736 c -1.46381,-0.78505 -1.99004,-1.69999 -1.98043,-3.44336 0.01,-1.82501 0.86119,-3.45827 2.56949,-4.93063 1.0023,-0.86387 2.55336,-1.85483 2.59845,-1.66013 0.009,0.0401 0.0548,0.45735 0.10108,0.92719 0.0463,0.46983 0.44968,1.4238 0.89637,2.11991 1.03505,1.61299 1.63149,3.04132 1.63149,3.90705 0,1.06046 -0.97963,2.72179 -1.87927,3.18702 -1.01548,0.52512 -1.14954,0.40584 -0.64063,-0.57001 0.21998,-0.42183 0.39534,-1.00509 0.38967,-1.29613 -0.0139,-0.71184 -0.72997,-2.27266 -0.7587,-1.65365 -0.0118,0.25466 -0.12597,0.46302 -0.25367,0.46302 -0.48861,0 -0.86714,-0.80886 -0.91119,-1.94706 -0.0367,-0.94728 -0.11561,-1.12621 -0.39472,-0.89457 -1.16401,0.96604 -1.40967,3.07668 -0.57276,4.92104 0.28784,0.63436 0.52335,1.19991 0.52335,1.25678 0,0.21487 -0.43502,0.0874 -1.31853,-0.38647 z m 0.12418,-1.03149 c -0.45087,-1.08371 -0.44873,-2.89551 0.004,-3.79264 0.50764,-1.00488 1.68802,-2.35892 2.05638,-2.35892 0.13109,0 0.15873,0.47123 0.0614,1.04717 -0.0973,0.57595 -0.0909,1.31813 0.0142,1.6493 l 0.1911,0.60213 0.21862,-0.59097 c 0.12024,-0.32503 0.31323,-0.59097 0.42888,-0.59097 0.35756,0 1.19474,3.34703 0.99477,3.97708 -0.26517,0.83546 0.29588,0.43039 0.82733,-0.59733 0.61068,-1.18091 0.33322,-2.5673 -0.93328,-4.66344 -0.59512,-0.98495 -1.08204,-2.05156 -1.08204,-2.37023 0,-0.91928 -0.4637,-0.69477 -2.21883,1.07424 -2.34976,2.36835 -2.93542,4.66949 -1.59411,6.26355 0.74964,0.8909 1.3392,1.09161 1.03109,0.35103 z" />
</svg>
