<?xml version="1.0" encoding="UTF-8" standalone="no"?>

<svg
   xmlns="http://www.w3.org/2000/svg"
   viewBox="0 0 12.3061 11.342829">
   <path
      d="m 4.38014,11.12338 c -0.46578,-0.1347 -0.91312,-0.35211 -0.9941,-0.48313 -0.081,-0.13102 0.27721,-0.95072 0.79596,-1.82156 0.86064,-1.44476 1.03279,-1.59188 1.96699,-1.68097 1.00655,-0.096 1.04008,-0.0698 1.98959,1.55335 0.53118,0.90804 0.89275,1.76915 0.80349,1.91358 -0.42161,0.68217 -2.98778,0.97397 -4.56193,0.51873 z m 3.30189,-0.52036 0.8142,-0.28383 -0.72509,-1.23752 c -0.58024,-0.9903 -0.88689,-1.25359 -1.53497,-1.31794 -0.71291,-0.0708 -0.89306,0.0616 -1.50482,1.10545 -0.84238,1.4374 -0.84288,1.4461 -0.0996,1.74484 0.82354,0.33103 2.08222,0.32649 3.05033,-0.011 z m -2.41401,-4.43336 c -0.56913,-0.62888 -0.55442,-1.18075 0.046,-1.72409 0.62888,-0.56914 1.18075,-0.55442 1.7241,0.046 0.56913,0.62888 0.55441,1.18075 -0.046,1.72409 -0.62889,0.56914 -1.18076,0.55442 -1.7241,-0.046 z m 1.54649,-0.83906 c 0,-0.48491 -0.15921,-0.68407 -0.59649,-0.74616 -0.35779,-0.0508 -0.66029,0.0815 -0.75592,0.33073 -0.26343,0.6865 0.10581,1.25391 0.75592,1.16159 0.43728,-0.0621 0.59649,-0.26125 0.59649,-0.74616 z m -6.64083,-1.08611 c 0.23539,-1.47207 0.74232,-2.37888 1.89619,-3.39199 l 0.97093,-0.85249 1.06603,1.78002 c 0.86777,1.44895 1.00814,1.85856 0.7547,2.20228 -0.17124,0.23223 -0.3813,0.63061 -0.46681,0.88527 -0.13078,0.3895 -0.49202,0.46302 -2.27509,0.46302 h -2.11963 z m 4.02781,-0.0887 c 0.25247,-0.54461 0.17942,-0.84806 -0.48365,-2.00905 l -0.78104,-1.36755 -0.67573,0.62205 c -0.66742,0.6144 -1.64718,2.42774 -1.65846,3.06945 -0.004,0.23015 0.49713,0.33011 1.64784,0.32867 1.49103,-0.002 1.68289,-0.0652 1.95104,-0.64357 z m 3.7099,0.71178 c -0.0855,-0.25466 -0.29558,-0.65304 -0.46681,-0.88527 -0.25344,-0.34372 -0.11307,-0.75333 0.75469,-2.20228 l 1.06604,-1.78002 0.97093,0.85249 c 1.15387,1.01311 1.66079,1.91992 1.89619,3.39199 l 0.17367,1.08611 h -2.11962 c -1.78308,0 -2.14431,-0.0735 -2.27509,-0.46302 z m 3.7921,-0.39688 c -0.0113,-0.64171 -0.99103,-2.45505 -1.65845,-3.06945 l -0.67573,-0.62205 -0.78104,1.36755 c -0.66308,1.16099 -0.73613,1.46444 -0.48365,2.00905 0.26815,0.57842 0.46001,0.64171 1.95104,0.64357 1.1507,0.001 1.65188,-0.0985 1.64783,-0.32867 z" />
</svg>
