<?xml version="1.0" encoding="UTF-8" standalone="no"?>

<svg
   xmlns="http://www.w3.org/2000/svg"
   viewBox="0 0 5.8208299 13.223751">
    <path
       d="m 0.26458,13.15063 c 0,-0.0432 0.46812,-1.47195 1.04027,-3.175 l 1.04028,-3.09646 h -1.17257 c -0.64491,0 -1.17256,-0.0641 -1.17256,-0.14243 0,-0.0783 0.6112,-1.62615 1.35822,-3.43959 l 1.35822,-3.29715 h 1.41991 c 0.95964,0 1.41983,0.10721 1.41969,0.33073 -1.2e-4,0.1819 -0.34323,1.05579 -0.76247,1.94198 -1.29374,2.7347 -1.29409,2.75437 -0.0489,2.75437 0.59189,0 1.07616,0.0853 1.07616,0.18961 0,0.31402 -5.14364,8.00081 -5.35781,8.00687 -0.10914,0.003 -0.19844,-0.0297 -0.19844,-0.0729 z m 3.27703,-5.21313 1.49278,-2.24896 -1.06199,-0.0814 c -0.58409,-0.0447 -1.06199,-0.12417 -1.06199,-0.1765 0,-0.0523 0.23813,-0.64079 0.52917,-1.3077 0.29104,-0.66691 0.76306,-1.74834 1.04893,-2.40319 l 0.51976,-1.19062 -0.98278,0.006 -0.98278,0.006 -1.12448,2.71756 c -0.61847,1.49465 -1.12448,2.80163 -1.12448,2.90439 0,0.10277 0.47625,0.18685 1.05833,0.18685 0.58208,0 1.05833,0.0387 1.05833,0.0859 0,0.0473 -0.29765,0.96109 -0.66145,2.03072 -0.97198,2.85773 -0.94931,2.84845 1.29265,-0.52917 z" />
</svg>
