<?xml version="1.0" encoding="UTF-8" standalone="no"?>

<svg
   xmlns="http://www.w3.org/2000/svg"
   viewBox="0 0 11.782461 11.911309">
    <path
       d="m 1.2385,9.53646 c 0,-1.89691 -0.10497,-2.54747 -0.52158,-3.23253 -1.20344,-1.97889 -0.85275,-4.60919 0.75914,-5.69389 1.4633,-0.9847 1.81234,-0.83457 2.02547,0.87124 0.10144,0.81192 0.31837,1.51857 0.48206,1.57033 0.16369,0.0518 1.94446,0.47468 3.95728,0.9398 3.75397,0.86747 4.29611,1.17873 3.55804,2.04278 -0.2129,0.24924 -0.57054,1.31636 -0.79475,2.37139 -0.34268,1.61246 -0.34936,1.91823 -0.0419,1.91823 0.23005,0 0.36579,0.29456 0.36579,0.79375 v 0.79375 h -3.43958 -3.43959 v -0.79375 c 0,-0.70443 0.0888,-0.79375 0.78871,-0.79375 0.88397,0 0.8665,0.0395 1.42536,-3.21951 l 0.34792,-2.02889 -1.71075,-0.42972 c -0.94091,-0.23635 -1.73429,-0.39492 -1.76307,-0.35237 -1.24812,1.84537 -1.46942,2.61124 -1.46942,5.08542 0,1.51199 -0.10662,2.53257 -0.26458,2.53257 -0.15674,0 -0.26458,-0.96801 -0.26458,-2.37485 z m 9.26041,1.5811 c 0,-0.16035 -1.14652,-0.26458 -2.91041,-0.26458 -1.76389,0 -2.91042,0.10423 -2.91042,0.26458 0,0.16035 1.14653,0.26458 2.91042,0.26458 1.76389,0 2.91041,-0.10423 2.91041,-0.26458 z m -2.45684,-1.24732 c -0.42837,-0.42837 -0.47877,-0.42837 -0.90714,0 -0.42838,0.42837 -0.40318,0.45357 0.45357,0.45357 0.85674,0 0.88194,-0.0252 0.45357,-0.45357 z m 2.22775,-1.81988 c 0.23781,-1.0816 0.35687,-2.01057 0.26459,-2.06439 -0.0923,-0.0538 -0.55474,-0.18084 -1.02768,-0.28228 -1.00345,-0.21521 -1.03116,-0.099 -0.57059,2.39318 0.53494,2.89454 0.68823,2.8892 1.33368,-0.0465 z m -3.42216,0.63303 c -0.24694,-0.24694 -0.3175,-0.17639 -0.3175,0.3175 0,0.49389 0.0706,0.56445 0.3175,0.3175 0.24695,-0.24694 0.24695,-0.38805 0,-0.635 z m 1.79917,0.26459 c 0,-0.42742 -0.0782,-0.50385 -0.29445,-0.28764 -0.16194,0.16195 -0.21445,0.42388 -0.11667,0.58208 0.27368,0.44283 0.41112,0.3444 0.41112,-0.29444 z m -0.6543,-0.75243 c 0.0939,-0.15189 0.0256,-0.45102 -0.15178,-0.66472 -0.24636,-0.29685 -0.4086,-0.31705 -0.6875,-0.0856 -0.27609,0.22913 -0.29187,0.39109 -0.0648,0.66472 0.35878,0.43229 0.6715,0.4619 0.90407,0.0856 z m -5.58547,-3.53354 c 0.71297,-1.35203 0.94865,-3.66811 0.4073,-4.00268 -0.45,-0.27812 -1.59142,0.64125 -1.99484,1.60677 -0.48133,1.15199 -0.47376,2.01697 0.0282,3.21826 0.4577,1.09542 0.58287,1.02941 1.55937,-0.82235 z m 5.55978,0.86932 c -0.22545,-0.36479 -0.90751,-0.27598 -0.90751,0.11817 0,0.19403 0.0783,0.43112 0.17409,0.52688 0.23927,0.23927 0.91349,-0.3537 0.73342,-0.64505 z m 3.06124,-0.20994 c -0.55671,-0.31397 -7.46163,-1.91164 -7.612,-1.76128 -0.13334,0.13334 -0.0374,0.16074 4.30471,1.22949 3.17486,0.78145 3.97932,0.9108 3.30729,0.53179 z" />
</svg>
