<?xml version="1.0" encoding="UTF-8" standalone="no"?>

<svg
   xmlns="http://www.w3.org/2000/svg"
   viewBox="0 0 16.043358 14.797278">
    <path
       d="m 3.01077,14.55023 c -0.94687,-0.3815 -1.53818,-1.85023 -0.74491,-1.85023 0.21829,0 0.39688,0.1744 0.39688,0.38756 0,0.57259 0.86549,0.93535 2.23156,0.93535 0.66441,0 1.20802,-0.0446 1.20802,-0.099 0,-0.0545 -0.17859,-0.60522 -0.39687,-1.22389 -0.48307,-1.36916 -0.48233,-1.32292 -0.0213,-1.32292 0.21576,0 0.56262,0.56301 0.81502,1.32292 l 0.4394,1.32291 h 1.56624 c 0.86143,0 1.56623,-0.0446 1.56623,-0.099 0,-0.0545 -0.17859,-0.60522 -0.39687,-1.22389 -0.48307,-1.36916 -0.48233,-1.32292 -0.0213,-1.32292 0.21576,0 0.56262,0.56301 0.81502,1.32292 l 0.4394,1.32291 h 1.38985 c 0.76441,0 1.45837,-0.0685 1.54213,-0.15228 0.0838,-0.0838 -0.0859,-0.85767 -0.37707,-1.7198 l -0.52935,-1.5675 h -5.26738 c -3.33519,0 -5.26737,-0.0971 -5.26737,-0.26458 0,-0.14553 0.4564,-0.26459 1.01423,-0.26459 0.55783,0 1.08453,-0.0703 1.17045,-0.15621 0.0859,-0.0859 -0.0133,-0.63667 -0.22049,-1.22389 -0.46059,-1.30548 -0.46056,-1.26573 -10e-4,-1.26573 0.21576,0 0.56261,0.56301 0.81501,1.32292 l 0.4394,1.32291 h 1.38985 c 0.76442,0 1.46014,-0.0703 1.54606,-0.15621 0.0859,-0.0859 -0.0133,-0.63667 -0.22049,-1.22389 -0.46059,-1.30548 -0.46056,-1.26573 -0.001,-1.26573 0.21576,0 0.56261,0.56301 0.81501,1.32292 l 0.4394,1.32291 h 1.38985 c 0.76442,0 1.45879,-0.0689 1.54305,-0.1532 0.24029,-0.24029 -0.61298,-2.58764 -1.0744,-2.95565 -0.29918,-0.23863 -1.82515,-0.33073 -5.47937,-0.33073 -2.78559,0 -5.13108,0.0664 -5.21219,0.14748 -0.0811,0.0811 0.10166,0.9138 0.40618,1.85041 0.5505,1.6932 0.55081,1.71434 0.0556,3.70287 -0.27392,1.09997 -0.60352,2.06514 -0.73247,2.14484 -0.52123,0.32214 -0.54224,-0.28327 -0.0749,-2.15983 0.47271,-1.89831 0.47358,-2.03141 0.0231,-3.51936 -0.81964,-2.70711 -1.14646,-2.55266 5.57429,-2.6344 4.771,-0.058 5.90393,-0.002 6.1564,0.30171 0.41841,0.50416 2.40946,6.47217 2.40946,7.22218 0,0.32912 -0.2303,0.72165 -0.51177,0.87229 -0.62568,0.33485 -10.21781,0.34133 -11.04645,0.007 z m 10.49989,-7.51673 c 0,-0.23041 -0.1786,-0.41892 -0.39688,-0.41892 -0.22343,0 -0.39687,-0.23652 -0.39687,-0.54119 0,-0.69851 -1.14156,-1.84006 -1.84006,-1.84006 -0.31501,0 -0.54119,-0.17332 -0.54119,-0.41471 0,-0.65845 -1.06827,-0.21265 -2.02553,0.84527 -0.96204,1.0632 -1.53176,0.74492 -0.69958,-0.39083 1.53676,-2.09738 4.66174,-2.03646 6.07366,0.1184 0.53089,0.81025 0.63596,2.77948 0.15717,2.94597 -0.1819,0.0632 -0.33072,-0.0735 -0.33072,-0.30393 z m -8.00365,-3.09438 c -0.25466,-0.14369 -0.46302,-0.3744 -0.46302,-0.51269 0,-0.34713 0.98628,-0.31749 1.20487,0.0362 0.27568,0.44606 -0.22539,0.76789 -0.74185,0.47649 z m 9.32656,-0.20256 c 0,-0.39045 0.75267,-0.88277 1.05959,-0.69308 0.20649,0.12762 0.20055,0.28523 -0.0208,0.55195 -0.34202,0.4121 -1.03879,0.50676 -1.03879,0.14113 z m -7.39871,-2.00518 c -0.43583,-0.52515 -0.0925,-1.07124 0.41081,-0.6535 0.4121,0.34201 0.50677,1.03878 0.14113,1.03878 -0.1277,0 -0.37607,-0.17338 -0.55194,-0.38528 z m 5.47326,0.22372 c -0.22748,-0.22748 0.27932,-1.16135 0.63025,-1.16135 0.15052,0 0.23563,0.25856 0.18913,0.57458 -0.0867,0.58941 -0.51212,0.89403 -0.81938,0.58677 z m -2.57246,-1.29365 c 0,-0.3638 0.11906,-0.66145 0.26458,-0.66145 0.14552,0 0.26458,0.29765 0.26458,0.66145 0,0.36381 -0.11906,0.66146 -0.26458,0.66146 -0.14552,0 -0.26458,-0.29765 -0.26458,-0.66146 z" />
</svg>
