<?xml version="1.0" encoding="UTF-8" standalone="no"?>
<!-- Created with Inkscape (http://www.inkscape.org/) -->

<svg
   xmlns:dc="http://purl.org/dc/elements/1.1/"
   xmlns:cc="http://creativecommons.org/ns#"
   xmlns:rdf="http://www.w3.org/1999/02/22-rdf-syntax-ns#"
   xmlns:svg="http://www.w3.org/2000/svg"
   xmlns="http://www.w3.org/2000/svg"
   xmlns:sodipodi="http://sodipodi.sourceforge.net/DTD/sodipodi-0.dtd"
   xmlns:inkscape="http://www.inkscape.org/namespaces/inkscape"
   width="47.873917"
   height="61.932144"
   viewBox="0 0 12.66664 16.386213"
   version="1.1"
   id="svg8"
   inkscape:version="0.92.3 (2405546, 2018-03-11)"
   sodipodi:docname="wind.svg">
  <defs
     id="defs2" />
  <sodipodi:namedview
     id="base"
     pagecolor="#ffffff"
     bordercolor="#666666"
     borderopacity="1.0"
     inkscape:pageopacity="0.0"
     inkscape:pageshadow="2"
     inkscape:zoom="11.2"
     inkscape:cx="19.77189"
     inkscape:cy="30.642657"
     inkscape:document-units="mm"
     inkscape:current-layer="layer1"
     showgrid="false"
     inkscape:window-width="1920"
     inkscape:window-height="1017"
     inkscape:window-x="1912"
     inkscape:window-y="-8"
     inkscape:window-maximized="1"
     fit-margin-top="0"
     fit-margin-left="0"
     fit-margin-right="0"
     fit-margin-bottom="0"
     showborder="true"
     units="px" />
  <metadata
     id="metadata5">
    <rdf:RDF>
      <cc:Work
         rdf:about="">
        <dc:format>image/svg+xml</dc:format>
        <dc:type
           rdf:resource="http://purl.org/dc/dcmitype/StillImage" />
        <dc:title></dc:title>
      </cc:Work>
    </rdf:RDF>
  </metadata>
  <g
     inkscape:label="Layer 1"
     inkscape:groupmode="layer"
     id="layer1"
     transform="translate(-23.052334,-40.522472)">
    <path
       style="fill:#000000;stroke-width:0.26458332"
       d="m 28.122502,53.336814 c 0.05741,-1.964531 0.01392,-3.571875 -0.09663,-3.571875 -0.110558,0 -0.962559,0.375535 -1.893335,0.834521 -1.834186,0.904478 -2.551031,0.869089 -2.551031,-0.12594 0,-0.487282 0.42026,-0.910397 1.845724,-1.858267 2.026251,-1.347366 2.401251,-1.505089 2.56043,-1.076903 0.05867,0.157824 -0.741467,0.850929 -1.778084,1.540232 -1.036617,0.689304 -1.826199,1.31184 -1.754626,1.383412 0.07157,0.07157 1.092309,-0.353641 2.268304,-0.94492 2.712214,-1.363674 3.436467,-1.365302 6.124541,-0.01377 1.160936,0.583707 2.110189,0.970661 2.109451,0.859896 -7.41e-4,-0.110765 -0.88514,-0.758051 -1.965337,-1.438414 -2.600835,-1.638138 -2.840692,-2.047568 -3.001591,-5.123655 -0.151142,-2.889556 -0.587979,-3.389126 -0.587979,-0.672418 0,1.909924 -0.15832,2.667473 -0.557474,2.667473 -0.329725,0 -0.29703,-4.154602 0.03762,-4.779894 0.35238,-0.658427 1.216502,-0.658427 1.568882,0 0.150641,0.281475 0.28576,1.382803 0.300266,2.447396 0.03985,2.925056 0.124148,3.078585 2.628169,4.786907 1.658799,1.131685 2.262016,1.698618 2.324114,2.184317 0.133667,1.045476 -0.616189,1.094778 -2.502605,0.164544 -0.930776,-0.458986 -1.794047,-0.834521 -1.918379,-0.834521 -0.124331,0 -0.164723,1.607344 -0.08976,3.571875 0.09716,2.546155 0.05099,3.571875 -0.160767,3.571875 -0.163385,0 -0.377196,-0.327422 -0.475135,-0.727604 -0.09794,-0.400183 -0.281849,-0.796046 -0.408689,-0.879697 -0.12684,-0.08365 -0.316866,-1.274276 -0.422282,-2.645833 -0.105416,-1.371557 -0.310727,-2.493741 -0.456248,-2.493741 -0.155435,0 -0.291577,1.146054 -0.330018,2.778125 -0.07342,3.117092 -0.208978,3.96875 -0.631711,3.96875 -0.201354,0 -0.258236,-1.093452 -0.185811,-3.571875 z m 1.133292,-5.711595 c -0.272659,-0.441171 0.340574,-0.947079 0.705569,-0.582083 0.305309,0.305309 0.114226,0.86972 -0.294446,0.86972 -0.128344,0 -0.31335,-0.129437 -0.411123,-0.287637 z m -6.20346,-2.093613 c 0,-0.145521 0.119063,-0.264583 0.264583,-0.264583 0.145521,0 0.264584,0.119062 0.264584,0.264583 0,0.145521 -0.119063,0.264584 -0.264584,0.264584 -0.14552,0 -0.264583,-0.119063 -0.264583,-0.264584 z m 0.529167,-1.394924 c 0,-0.557215 1.469659,-2.162452 2.475978,-2.704391 1.189299,-0.64048 1.626959,-0.262811 0.570246,0.492082 -0.434628,0.310489 -1.21114,1.011009 -1.725581,1.556713 -0.98474,1.04458 -1.320643,1.21133 -1.320643,0.655596 z m 2.001629,-0.131224 c -0.30922,-0.30922 -0.121783,-0.590307 0.820694,-1.230737 0.897903,-0.61014 1.41101,-0.677384 1.41101,-0.184915 0,0.291261 -2.05349,1.593866 -2.231704,1.415652 z"
       id="path4551"
       inkscape:connector-curvature="0" />
  </g>
</svg>
