<?xml version="1.0" encoding="UTF-8" standalone="no"?>

<svg
   xmlns="http://www.w3.org/2000/svg"
   viewBox="0 0 8.4628592 13.22917">
    <path
       d="m 1.91356,12.36932 c -0.2205,-0.68736 -0.28127,-0.74045 -0.30286,-0.26458 -0.0341,0.75116 -0.38542,0.75647 -1.07504,0.0162 -0.50411,-0.5411 -0.5392,-0.9096 -0.53542,-5.62239 0.002,-2.77384 0.0957,-5.18755 0.20771,-5.36381 0.31688,-0.49862 2.0522,-1.13474 3.09553,-1.13474 1.04333,0 2.77866,0.63612 3.09553,1.13474 0.11201,0.17626 0.20548,1.00508 0.20771,1.84182 0.004,1.4395 0.0391,1.52136 0.6562,1.52136 0.59541,0 1.19994,0.63727 1.19994,1.26493 0,0.13277 -0.41672,0.67047 -0.92604,1.19491 -0.87571,0.90168 -0.92605,1.05219 -0.92605,2.76882 0,1.47731 -0.10325,1.92614 -0.55457,2.41057 -0.70215,0.75367 -1.58951,1.09202 -2.86396,1.09202 -0.89843,0 -1.03155,-0.0895 -1.27868,-0.8599 z m 3.09079,-0.0564 c 0.94798,-0.49022 1.07726,-0.84692 1.07726,-2.9723 0,-1.6494 0.044,-1.76893 0.96043,-2.60834 1.00223,-0.91801 1.07569,-1.70519 0.15912,-1.70519 -0.72207,0 -1.11955,-0.53064 -1.11955,-1.49462 v -0.85963 l -0.91755,0.38338 c -1.16878,0.48835 -2.55238,0.48835 -3.72116,0 l -0.91754,-0.38338 0.004,4.28598 c 0.005,4.94974 0.3245,6.20733 0.90493,3.55838 0.24213,-1.10502 0.59677,-0.87234 0.80653,0.52916 0.10345,0.69123 0.24306,1.34607 0.31024,1.45521 0.20509,0.3332 1.66052,0.22128 2.45324,-0.18865 z m -0.77483,-3.44937 c 0,-0.65484 0.11907,-1.19062 0.26459,-1.19062 0.14552,0 0.26458,0.53578 0.26458,1.19062 0,0.65485 -0.11906,1.19063 -0.26458,1.19063 -0.14552,0 -0.26459,-0.53578 -0.26459,-1.19063 z m -2.64583,-2.91041 c 0,-0.50933 0.11906,-0.92605 0.26458,-0.92605 0.14552,0 0.26459,0.41672 0.26459,0.92605 0,0.50932 -0.11907,0.92604 -0.26459,0.92604 -0.14552,0 -0.26458,-0.41672 -0.26458,-0.92604 z m 2.33447,-3.23035 c -1.56917,-0.24007 -1.52914,-1.66445 0.0468,-1.66445 0.95486,0 1.51938,0.6351 1.05833,1.19063 -0.38423,0.46297 -0.17618,0.50978 0.54656,0.12298 0.78274,-0.41891 0.61163,-1.0343 -0.40577,-1.4594 -1.08462,-0.45318 -3.17043,-0.52576 -2.90803,-0.10119 0.0959,0.15521 -0.0343,0.4348 -0.28939,0.62132 -0.83908,0.61355 0.28137,1.46699 1.86601,1.42133 0.76143,-0.0219 0.76491,-0.0273 0.0855,-0.13122 z m -2.74165,-0.62279 c -0.0956,-0.15469 0.0349,-0.51187 0.28998,-0.79375 0.53227,-0.58815 0.19103,-0.68599 -0.53668,-0.15388 -0.50569,0.36977 -0.41339,1.22889 0.13202,1.22889 0.15868,0 0.21029,-0.12656 0.11468,-0.28126 z m 3.3176,-0.24791 c 0,-0.14552 -0.23813,-0.26458 -0.52917,-0.26458 -0.29104,0 -0.52917,0.11906 -0.52917,0.26458 0,0.14552 0.23813,0.26459 0.52917,0.26459 0.29104,0 0.52917,-0.11907 0.52917,-0.26459 z" />
</svg>
